<svg width="149" height="37" viewBox="0 0 149 37" fill="none" xmlns="http://www.w3.org/2000/svg">
  <g transform="translate(35, 14) scale(0.9)" id="svgGroup" stroke-linecap="round" fill-rule="evenodd" font-size="9pt" stroke="#000" stroke-width="0.25mm" fill="#0b132a" style="stroke:#000;stroke-width:0.25mm;fill:#0b132a">
    <path d="M 53.3 14.8 L 51.5 14.8 L 51.5 4.4 L 53.24 4.4 L 53.24 6.14 Q 53.8 5.3 54.66 4.73 A 3.441 3.441 0 0 1 56.5 4.162 A 4.171 4.171 0 0 1 56.62 4.16 Q 57.86 4.16 58.65 4.76 A 3.15 3.15 0 0 1 59.74 6.298 A 3.831 3.831 0 0 1 59.76 6.36 Q 60.38 5.44 61.23 4.8 A 3.134 3.134 0 0 1 62.588 4.223 A 4.289 4.289 0 0 1 63.34 4.16 Q 64.725 4.16 65.533 4.87 A 2.599 2.599 0 0 1 65.87 5.23 A 3.798 3.798 0 0 1 66.552 6.684 Q 66.7 7.294 66.7 8.02 L 66.7 14.8 L 64.9 14.8 L 64.9 8.16 A 3.809 3.809 0 0 0 64.833 7.422 Q 64.745 6.981 64.546 6.632 A 2.196 2.196 0 0 0 64.4 6.41 A 1.595 1.595 0 0 0 63.237 5.751 A 2.136 2.136 0 0 0 63.02 5.74 A 2.385 2.385 0 0 0 61.668 6.165 A 3.199 3.199 0 0 0 61.35 6.41 Q 60.58 7.08 60 7.98 L 60 14.8 L 58.2 14.8 L 58.2 8.16 A 3.809 3.809 0 0 0 58.133 7.422 Q 58.045 6.981 57.846 6.632 A 2.196 2.196 0 0 0 57.7 6.41 A 1.595 1.595 0 0 0 56.537 5.751 A 2.136 2.136 0 0 0 56.32 5.74 A 2.404 2.404 0 0 0 55.056 6.106 A 3.249 3.249 0 0 0 54.66 6.39 Q 53.88 7.04 53.3 7.92 L 53.3 14.8 Z M 0 13.62 L 0.96 12.02 Q 1.68 12.62 2.58 13 Q 3.48 13.38 4.68 13.38 A 5.596 5.596 0 0 0 5.589 13.311 Q 6.405 13.176 6.96 12.78 A 2.056 2.056 0 0 0 7.519 12.199 Q 7.782 11.778 7.799 11.233 A 2.423 2.423 0 0 0 7.8 11.16 A 2.388 2.388 0 0 0 7.733 10.581 A 1.963 1.963 0 0 0 7.56 10.13 Q 7.321 9.682 6.637 9.254 A 5.256 5.256 0 0 0 6.63 9.25 Q 5.94 8.82 4.6 8.32 Q 3.581 7.924 2.852 7.522 A 7.899 7.899 0 0 1 2.3 7.19 A 4.386 4.386 0 0 1 1.682 6.7 Q 1.29 6.323 1.07 5.89 A 3.333 3.333 0 0 1 0.766 4.956 A 4.586 4.586 0 0 1 0.7 4.16 Q 0.7 3.16 1.25 2.35 Q 1.8 1.54 2.87 1.05 A 5.112 5.112 0 0 1 4.05 0.683 Q 4.577 0.583 5.178 0.564 A 9.045 9.045 0 0 1 5.46 0.56 Q 6.7 0.56 7.69 0.81 Q 8.68 1.06 9.62 1.52 L 8.92 3.14 Q 8.24 2.74 7.33 2.47 Q 6.42 2.2 5.42 2.2 Q 4.1 2.2 3.34 2.72 A 1.98 1.98 0 0 0 2.907 3.113 A 1.472 1.472 0 0 0 2.58 4.06 A 2.093 2.093 0 0 0 2.638 4.564 A 1.712 1.712 0 0 0 2.8 4.98 A 1.382 1.382 0 0 0 3.014 5.265 Q 3.254 5.517 3.67 5.76 Q 4.32 6.14 5.62 6.62 A 16.246 16.246 0 0 1 6.616 7.026 Q 7.102 7.244 7.503 7.471 A 7.101 7.101 0 0 1 8.09 7.84 Q 8.836 8.364 9.225 8.963 A 2.846 2.846 0 0 1 9.38 9.23 A 3.516 3.516 0 0 1 9.728 10.403 A 4.431 4.431 0 0 1 9.76 10.94 A 4.342 4.342 0 0 1 9.627 12.04 A 3.421 3.421 0 0 1 9.11 13.16 A 3.924 3.924 0 0 1 7.724 14.365 A 4.871 4.871 0 0 1 7.31 14.56 A 6.104 6.104 0 0 1 5.828 14.961 A 8.005 8.005 0 0 1 4.68 15.04 Q 3.22 15.04 2.02 14.65 A 7.641 7.641 0 0 1 0.947 14.214 A 5.687 5.687 0 0 1 0 13.62 Z M 83.52 14.8 L 81.72 14.8 L 81.72 4.4 L 83.46 4.4 L 83.46 6.14 Q 84.02 5.3 84.89 4.73 A 3.463 3.463 0 0 1 86.311 4.205 A 4.526 4.526 0 0 1 86.96 4.16 A 4.645 4.645 0 0 1 87.973 4.264 Q 88.642 4.413 89.129 4.778 A 2.652 2.652 0 0 1 89.59 5.22 A 3.681 3.681 0 0 1 90.311 6.696 Q 90.46 7.3 90.46 8.02 L 90.46 14.8 L 88.66 14.8 L 88.66 8.22 A 3.853 3.853 0 0 0 88.592 7.472 Q 88.504 7.029 88.304 6.679 A 2.193 2.193 0 0 0 88.13 6.42 Q 87.6 5.74 86.66 5.74 A 2.624 2.624 0 0 0 85.29 6.133 A 3.471 3.471 0 0 0 84.92 6.39 Q 84.1 7.04 83.52 7.92 L 83.52 14.8 Z M 36.7 10.34 L 29.42 10.34 A 4.818 4.818 0 0 0 29.648 11.345 Q 29.886 12.024 30.328 12.505 A 2.996 2.996 0 0 0 30.44 12.62 A 2.829 2.829 0 0 0 31.965 13.382 A 4.004 4.004 0 0 0 32.66 13.44 Q 33.56 13.44 34.28 13.25 Q 35 13.06 35.66 12.76 L 36.08 14.3 A 8.154 8.154 0 0 1 35.213 14.625 A 10.373 10.373 0 0 1 34.46 14.83 Q 33.56 15.04 32.44 15.04 A 5.664 5.664 0 0 1 30.891 14.839 A 4.222 4.222 0 0 1 28.89 13.61 A 4.704 4.704 0 0 1 27.849 11.702 Q 27.647 11.002 27.597 10.17 A 9.425 9.425 0 0 1 27.58 9.6 A 7.072 7.072 0 0 1 27.747 8.036 A 5.768 5.768 0 0 1 28.17 6.81 A 4.928 4.928 0 0 1 29.173 5.394 A 4.577 4.577 0 0 1 29.82 4.87 A 4.21 4.21 0 0 1 31.872 4.176 A 5.241 5.241 0 0 1 32.28 4.16 A 5.711 5.711 0 0 1 33.374 4.259 Q 34.043 4.39 34.577 4.692 A 3.443 3.443 0 0 1 34.77 4.81 Q 35.76 5.46 36.26 6.56 A 5.637 5.637 0 0 1 36.745 8.533 A 6.687 6.687 0 0 1 36.76 8.98 A 15.041 15.041 0 0 1 36.702 10.319 A 14.117 14.117 0 0 1 36.7 10.34 Z M 101.98 10.34 L 94.7 10.34 A 4.818 4.818 0 0 0 94.928 11.345 Q 95.166 12.024 95.608 12.505 A 2.996 2.996 0 0 0 95.72 12.62 A 2.829 2.829 0 0 0 97.245 13.382 A 4.004 4.004 0 0 0 97.94 13.44 Q 98.84 13.44 99.56 13.25 Q 100.28 13.06 100.94 12.76 L 101.36 14.3 A 8.154 8.154 0 0 1 100.493 14.625 A 10.373 10.373 0 0 1 99.74 14.83 Q 98.84 15.04 97.72 15.04 A 5.664 5.664 0 0 1 96.171 14.839 A 4.222 4.222 0 0 1 94.17 13.61 A 4.704 4.704 0 0 1 93.129 11.702 Q 92.927 11.002 92.877 10.17 A 9.425 9.425 0 0 1 92.86 9.6 A 7.072 7.072 0 0 1 93.027 8.036 A 5.768 5.768 0 0 1 93.45 6.81 A 4.928 4.928 0 0 1 94.453 5.394 A 4.577 4.577 0 0 1 95.1 4.87 A 4.21 4.21 0 0 1 97.152 4.176 A 5.241 5.241 0 0 1 97.56 4.16 A 5.711 5.711 0 0 1 98.654 4.259 Q 99.323 4.39 99.857 4.692 A 3.443 3.443 0 0 1 100.05 4.81 Q 101.04 5.46 101.54 6.56 A 5.637 5.637 0 0 1 102.025 8.533 A 6.687 6.687 0 0 1 102.04 8.98 A 15.041 15.041 0 0 1 101.982 10.319 A 14.117 14.117 0 0 1 101.98 10.34 Z M 12.76 11.22 L 12.76 6.34 L 10.96 6.34 L 10.96 4.78 L 12.8 4.78 L 13.18 1.5 L 14.56 1.5 L 14.56 4.78 L 17.44 4.78 L 17.44 6.34 L 14.56 6.34 L 14.56 11.36 Q 14.56 12.388 14.945 12.866 A 1.111 1.111 0 0 0 15.05 12.98 Q 15.54 13.44 16.22 13.44 Q 16.72 13.44 17.17 13.28 Q 17.62 13.12 18 12.9 L 18.5 14.34 A 3.709 3.709 0 0 1 18.176 14.511 Q 18.016 14.587 17.827 14.662 A 8.673 8.673 0 0 1 17.42 14.81 Q 16.74 15.04 16 15.04 A 3.665 3.665 0 0 1 14.964 14.901 A 2.787 2.787 0 0 1 13.63 14.05 Q 12.76 13.06 12.76 11.22 Z M 46.28 5.24 L 46.28 4.4 L 47.92 4.4 L 47.92 12.28 A 2.43 2.43 0 0 0 47.94 12.607 Q 48.007 13.094 48.29 13.27 Q 48.66 13.5 49.1 13.5 L 48.72 14.9 A 4.683 4.683 0 0 1 48.69 14.9 Q 46.819 14.888 46.409 13.376 A 2.755 2.755 0 0 1 46.4 13.34 A 4.261 4.261 0 0 1 45.778 14.025 A 5.7 5.7 0 0 1 45.15 14.51 Q 44.36 15.04 43.14 15.04 Q 41.84 15.04 40.78 14.38 Q 39.72 13.72 39.09 12.51 A 5.446 5.446 0 0 1 38.564 10.922 A 7.329 7.329 0 0 1 38.46 9.66 A 6.628 6.628 0 0 1 38.659 8.006 A 5.594 5.594 0 0 1 39.09 6.86 Q 39.72 5.62 40.83 4.89 A 4.459 4.459 0 0 1 43.069 4.169 A 5.478 5.478 0 0 1 43.38 4.16 A 4.517 4.517 0 0 1 44.339 4.258 A 3.741 3.741 0 0 1 45.01 4.47 A 5.2 5.2 0 0 1 45.867 4.929 A 4.421 4.421 0 0 1 46.28 5.24 Z M 69.7 11.54 L 69.7 0 L 71.5 0 L 71.5 11.36 Q 71.5 12.44 71.95 12.96 A 1.473 1.473 0 0 0 72.867 13.455 A 2.145 2.145 0 0 0 73.2 13.48 Q 73.58 13.48 73.95 13.39 A 4.438 4.438 0 0 0 74.243 13.309 Q 74.43 13.249 74.58 13.18 L 75.02 14.64 Q 74.74 14.764 74.358 14.865 A 6.996 6.996 0 0 1 74.13 14.92 A 4.763 4.763 0 0 1 73.499 15.017 A 6.103 6.103 0 0 1 72.96 15.04 Q 72.04 15.04 71.3 14.69 A 2.537 2.537 0 0 1 70.235 13.737 A 3.171 3.171 0 0 1 70.13 13.56 A 3.151 3.151 0 0 1 69.836 12.789 Q 69.747 12.427 69.716 12.002 A 6.421 6.421 0 0 1 69.7 11.54 Z M 22.1 14.8 L 20.3 14.8 L 20.3 4.4 L 22.04 4.4 L 22.04 6.66 Q 22.3 6 22.74 5.43 Q 23.18 4.86 23.84 4.51 A 2.963 2.963 0 0 1 24.776 4.205 A 3.892 3.892 0 0 1 25.38 4.16 Q 25.68 4.16 25.98 4.19 A 3.794 3.794 0 0 1 26.191 4.217 Q 26.291 4.232 26.376 4.252 A 1.763 1.763 0 0 1 26.48 4.28 L 25.94 6.14 Q 25.577 5.987 25.087 5.98 A 3.318 3.318 0 0 0 25.04 5.98 A 2.592 2.592 0 0 0 23.714 6.349 A 3.122 3.122 0 0 0 23.63 6.4 A 2.68 2.68 0 0 0 22.936 7.039 Q 22.715 7.324 22.536 7.688 A 4.585 4.585 0 0 0 22.53 7.7 A 3.864 3.864 0 0 0 22.236 8.562 Q 22.1 9.175 22.1 9.94 L 22.1 14.8 Z M 78.52 14.8 L 76.72 14.8 L 76.72 4.4 L 78.52 4.4 L 78.52 14.8 Z M 46.12 12.14 L 46.12 6.56 Q 45.58 6.18 44.93 5.95 Q 44.28 5.72 43.56 5.72 A 3.185 3.185 0 0 0 42.566 5.871 A 2.805 2.805 0 0 0 41.87 6.21 A 3.26 3.26 0 0 0 40.866 7.295 A 3.992 3.992 0 0 0 40.72 7.57 A 4.133 4.133 0 0 0 40.369 8.705 A 5.536 5.536 0 0 0 40.3 9.6 Q 40.3 10.72 40.72 11.59 A 3.52 3.52 0 0 0 41.341 12.499 A 3.139 3.139 0 0 0 41.88 12.95 Q 42.62 13.44 43.54 13.44 Q 44.3 13.44 44.98 13.07 Q 45.66 12.7 46.12 12.14 Z M 29.4 8.88 L 35.1 8.88 Q 35.1 7.776 34.699 7.041 A 2.484 2.484 0 0 0 34.34 6.54 A 2.498 2.498 0 0 0 32.948 5.785 A 3.679 3.679 0 0 0 32.24 5.72 A 2.716 2.716 0 0 0 31.218 5.907 A 2.505 2.505 0 0 0 30.32 6.53 Q 29.687 7.204 29.471 8.384 A 6.404 6.404 0 0 0 29.4 8.88 Z M 94.68 8.88 L 100.38 8.88 Q 100.38 7.776 99.979 7.041 A 2.484 2.484 0 0 0 99.62 6.54 A 2.498 2.498 0 0 0 98.228 5.785 A 3.679 3.679 0 0 0 97.52 5.72 A 2.716 2.716 0 0 0 96.498 5.907 A 2.505 2.505 0 0 0 95.6 6.53 Q 94.967 7.204 94.751 8.384 A 6.404 6.404 0 0 0 94.68 8.88 Z M 76.747 2.258 A 1.195 1.195 0 0 0 77.62 2.62 A 1.635 1.635 0 0 0 77.919 2.594 A 1.129 1.129 0 0 0 78.54 2.27 A 1.155 1.155 0 0 0 78.825 1.777 A 1.502 1.502 0 0 0 78.88 1.36 Q 78.88 0.84 78.51 0.47 A 1.481 1.481 0 0 0 78.498 0.459 A 1.212 1.212 0 0 0 77.62 0.1 A 1.653 1.653 0 0 0 77.289 0.132 A 1.132 1.132 0 0 0 76.7 0.44 A 1.118 1.118 0 0 0 76.406 0.966 A 1.597 1.597 0 0 0 76.36 1.36 A 1.198 1.198 0 0 0 76.458 1.844 A 1.329 1.329 0 0 0 76.73 2.24 A 1.493 1.493 0 0 0 76.747 2.258 Z" vector-effect="non-scaling-stroke"/>
  </g>
  <g transform="matrix(-1.1919 0 0 -1.1445 15.7706 19.0052)">
  <g transform="matrix(0.005 0 0 -0.0056 -2.521 2.5438)">
    <path style="stroke: none; stroke-width: 1; stroke-dasharray: none; stroke-linecap: butt; stroke-dashoffset: 0; stroke-linejoin: miter; stroke-miterlimit: 4; is-custom-font: none; font-file-url: none; fill: rgb(245,56,56); fill-rule: nonzero; opacity: 1;" transform="translate(-4613.3077, -4668.2387)" d="M2815 5944 c-10 -106 2 -317 25 -434 c 51 -265 181 -506 368 -681 c 242 -228 545 -370 899 -423 c 177 -27 387 -35 813 -29 c 228 3 481 1 561 -5 c 132 -8 151 -12 199 -38 c 80 -43 156 -121 170 -175 c 20 -74 -12 -198 -71 -273 c -37 -48 -148 -118 -207 -133 c -47 -11 -290 -15 -1372 -18 c -723 -2 -1353 -7 -1400 -10 c -77 -6 -272 -37 -425 -68 l -60 -12 l -12 -70 c -6 -38 -17 -110 -25 -160 l -14 -90 l 2005 1 l 2006 0 l 93 22 c 280 65 518 286 578 538 c 24 102 22 253 -6 334 c -79 235 -275 407 -573 504 c -122 40 -141 44 -322 67 c -158 21 -226 23 -995 29 c -541 5 -853 11 -905 19 c -293 43 -537 147 -749 320 c -170 139 -312 337 -460 641 c -52 107 -99 201 -104 209 c -7 10 -12 -10 -17 -65 z" stroke-linecap="round" />
  </g>
  <g transform="matrix(0.005 0 0 -0.0059 2.8698 -1.1296)">
    <path style="stroke: none; stroke-width: 1; stroke-dasharray: none; stroke-linecap: butt; stroke-dashoffset: 0; stroke-linejoin: miter; stroke-miterlimit: 4; is-custom-font: none; font-file-url: none; fill: rgb(245,56,56); fill-rule: nonzero; opacity: 1;" transform="translate(-5691.4745, -5449.1945)" d="M4360 6913 c -70 -7 -206 -35 -275 -55 c -78 -23 -231 -96 -285 -136 c -257 -191 -368 -364 -386 -603 c -11 -142 22 -261 105 -379 c 57 -82 138 -162 214 -211 c 124 -80 359 -150 572 -169 c 63 -6 465 -10 935 -10 c 1058 0 1144 -8 1375 -120 c 235 -113 396 -259 553 -498 c 58 -89 218 -404 300 -592 c 27 -63 57 -128 65 -144 c 15 -28 15 -28 22 40 c 14 122 -1 377 -29 505 c -53 245 -118 439 -184 549 c -104 170 -280 349 -447 455 c -127 79 -208 115 -351 156 c -215 62 -199 61 -964 69 c -756 7 -779 9 -902 62 c -55 24 -118 88 -118 121 c 0 29 33 148 73 262 c 34 97 77 151 161 200 c 96 56 65 55 1251 55 c 1073 0 1253 4 1545 35 c 102 11 311 42 327 49 c 1 1 11 69 22 151 c 12 83 24 165 27 183 l 5 32 l -1788 -2 c -983 0 -1804 -3 -1823 -5 z" stroke-linecap="round" />
  </g>
</g>
</svg>