<?xml version="1.0" standalone="no"?>
<!DOCTYPE svg PUBLIC "-//W3C//DTD SVG 20010904//EN"
 "http://www.w3.org/TR/2001/REC-SVG-20010904/DTD/svg10.dtd">
<svg version="1.0" xmlns="http://www.w3.org/2000/svg"
 width="1080.000000pt" height="1080.000000pt" viewBox="0 0 1080.000000 1080.000000"
 preserveAspectRatio="xMidYMid meet">
<metadata>
Created by potrace 1.14, written by Peter Selinger 2001-2017
</metadata>
<g transform="translate(0.000000,1080.000000) scale(0.100000,-0.100000)"
fill="#000000" stroke="none">
<path d="M4140 8559 c-176 -10 -430 -50 -531 -82 -24 -8 -84 -27 -134 -42
-148 -44 -403 -178 -515 -269 -234 -190 -322 -278 -443 -444 -146 -200 -252
-615 -208 -815 5 -23 15 -76 21 -117 28 -174 159 -392 351 -587 151 -152 288
-237 524 -325 183 -67 416 -128 580 -149 227 -30 723 -41 2550 -59 550 -5
1036 -14 1080 -19 264 -33 365 -52 540 -104 86 -26 392 -177 499 -247 156
-102 418 -339 501 -455 16 -22 48 -63 72 -91 77 -94 211 -300 291 -451 98
-186 219 -432 238 -486 8 -22 18 -45 23 -51 5 -6 19 -35 30 -64 19 -49 39 -94
107 -239 13 -28 24 -57 24 -63 0 -5 4 -18 9 -28 18 -35 93 -208 98 -224 17
-57 28 13 40 244 6 129 -10 463 -27 553 -5 28 -16 91 -25 140 -31 174 -36 200
-50 245 -7 25 -23 88 -35 140 -30 133 -97 341 -136 427 -19 40 -34 76 -34 79
0 3 -11 30 -25 60 -14 30 -25 57 -25 60 0 11 -143 228 -194 294 -121 159 -260
304 -436 457 -76 66 -333 229 -467 297 -141 70 -173 83 -403 154 -181 57 -459
111 -568 113 -31 0 -79 4 -107 10 -28 5 -546 13 -1170 19 -1246 10 -1239 10
-1477 79 -140 41 -263 127 -294 206 -31 83 2 271 89 495 14 36 28 82 32 102
17 106 196 288 355 360 126 57 134 58 755 58 314 0 917 -5 1340 -10 1559 -19
2401 -13 2725 20 52 5 149 14 215 20 264 24 611 78 635 99 13 12 22 49 34 136
10 66 26 179 37 250 27 173 33 245 23 255 -8 8 -598 14 -4104 40 -2117 16
-2277 16 -2410 9z"/>
<path d="M1200 6843 c-22 -185 6 -701 48 -890 44 -194 138 -452 224 -618 49
-92 134 -224 206 -319 88 -115 274 -311 358 -377 31 -24 86 -68 123 -98 80
-64 203 -147 302 -202 241 -135 317 -169 564 -246 298 -94 371 -112 500 -127
28 -3 79 -11 115 -17 221 -37 518 -47 1410 -48 668 -1 1112 -10 1235 -26 155
-20 404 -207 465 -349 27 -64 27 -185 0 -295 -23 -90 -92 -226 -143 -280 -30
-31 -123 -103 -214 -164 -122 -83 -329 -102 -938 -84 -148 4 -513 8 -810 8
-297 0 -1140 5 -1874 11 -1053 9 -1375 9 -1530 -1 -184 -12 -444 -40 -556 -62
-27 -5 -79 -13 -114 -19 -35 -6 -66 -12 -70 -14 -3 -2 -40 -9 -81 -15 -163
-23 -176 -34 -190 -162 -5 -46 -14 -104 -19 -129 -19 -87 -40 -206 -47 -262
-5 -46 -3 -58 7 -58 196 7 3767 -18 5714 -39 418 -4 960 -8 1205 -7 l445 1
125 28 c157 35 202 49 320 104 122 56 119 54 230 131 257 179 425 403 513 684
41 131 57 239 57 387 0 115 -21 261 -43 295 -7 12 -21 45 -31 74 -46 145 -115
246 -283 417 -289 295 -839 520 -1368 560 -38 2 -113 10 -165 16 -52 6 -135
15 -185 20 -153 15 -760 27 -1425 29 -716 2 -1423 15 -1550 29 -406 45 -687
128 -1017 298 -328 169 -606 400 -843 699 -34 43 -269 402 -287 439 -11 22
-43 85 -70 140 -28 55 -63 129 -78 165 -15 36 -37 83 -49 105 -13 22 -25 49
-28 60 -10 34 -94 218 -121 263 l-25 44 -12 -99z"/>
</g>
</svg>
