<svg width="24" height="25" viewBox="0 0 24 25" fill="none" xmlns="http://www.w3.org/2000/svg">
  <path d="M23 11.7605C23 12.379 22.8343 12.9767 22.5118 13.5202C22.1892 14.0636 21.7164 14.5311 21.1339 14.8526C20.5515 15.174 19.8742 15.3342 19.1854 15.3201C18.4966 15.3059 17.8187 15.1172 17.216 14.7717C16.6134 14.4263 16.1014 13.9332 15.7248 13.3277C15.3482 12.7222 15.1213 12.0199 15.0654 11.2979C15.0094 10.5758 15.1262 9.85258 15.4082 9.19054C15.6902 8.5285 16.1292 7.94719 16.6832 7.50809C17.2372 7.06899 17.8885 6.7837 18.5993 6.68248C19.3102 6.58126 20.0519 6.66879 20.7223 6.93664C21.3927 7.20449 21.9686 7.64107 22.3947 8.20885C22.8209 8.77663 23.0811 9.45523 23.1464 10.1601H22.1257C22.0633 9.65307 21.9073 9.17016 21.6702 8.74183C21.433 8.3135 21.1225 7.9505 20.7616 7.67646C20.4008 7.40242 19.9997 7.22646 19.5787 7.16054C19.1577 7.09461 18.7274 7.14188 18.3271 7.2984C17.9269 7.45492 17.5685 7.71611 17.2808 8.05834C16.993 8.40057 16.7879 8.81425 16.6838 9.24954C16.5798 9.68484 16.5798 10.1308 16.6838 10.5661C16.7879 11.0014 16.993 11.4151 17.2808 11.7573C17.5685 12.0996 17.9269 12.3608 18.3271 12.5173C18.7274 12.6738 19.1577 12.7211 19.5787 12.6552C19.9997 12.5893 20.4008 12.4133 20.7616 12.1393C21.1225 11.8653 21.433 11.5023 21.6702 11.074C21.9073 10.6457 22.0633 10.1628 22.1257 9.65577H23V11.7605ZM8 12.5493V21.5493H5V12.5493H1V9.54932H8V12.5493ZM3 17.5493H6V19.5493H3V17.5493ZM11 17.5493H20V20.5493H11V17.5493ZM11 14.5493H20V16.5493H11V14.5493ZM11 11.5493H20V13.5493H11V11.5493ZM1 11.5493H8V13.5493H1V11.5493ZM1 14.5493H8V16.5493H1V14.5493ZM1 17.5493H8V19.5493H1V17.5493ZM1 5.54932H5V8.54932H1V5.54932ZM11 8.54932H20V11.5493H11V8.54932ZM6 5.54932H10V8.54932H6V5.54932ZM11 5.54932H20V8.54932H11V5.54932Z" fill="#F53838"/>
</svg>